<svg width="26" height="36" viewBox="0 0 26 36" fill="none" xmlns="http://www.w3.org/2000/svg">
<path d="M19.828 8.24566C19.828 12.8639 15.9867 15.7341 10.9369 15.7341H0.750977V0.757263H10.9369C15.9867 0.757263 19.828 3.60588 19.828 8.24566ZM15.8573 8.24566C15.8573 5.7855 13.8503 3.92958 11.1096 3.92958H4.59229V12.5617H11.1311C13.8719 12.5186 15.8573 10.6842 15.8573 8.24566Z" fill="#F2F2F2"/>
<path d="M17.1089 20.2443C19.6986 20.2443 21.8134 20.9133 23.4967 22.2729C25.1584 23.6324 26 25.4452 26 27.7327C26 29.9987 25.1584 31.8114 23.4967 33.1926C21.835 34.5521 19.6986 35.2427 17.1089 35.2427H0.750977V20.2443H17.1089ZM17.7132 31.6604C18.9648 31.6388 20.0007 31.2719 20.7992 30.5166C21.6192 29.7613 22.0077 28.8333 22.0077 27.7327C22.0077 26.6105 21.5976 25.661 20.7992 24.9273C19.9791 24.172 18.9648 23.8051 17.7132 23.8051H4.61387V31.6604H17.7132Z" fill="#F2F2F2"/>
</svg>
