<svg width="62" height="33" viewBox="0 0 62 33" fill="none" xmlns="http://www.w3.org/2000/svg">
<path d="M61.0882 15.6372C48.9618 15.6372 40.1176 0.803745 40.0265 0.62174C39.7529 0.166727 39.2059 0.0757228 38.75 0.257728C38.2941 0.530736 38.2029 1.07675 38.3853 1.53177C38.6588 2.07778 44.4029 11.5421 53.2471 15.6372L0.911764 15.6372C0.364705 15.6372 -7.39744e-07 16.0012 -7.15877e-07 16.5472C-6.9201e-07 17.0932 0.364705 17.4572 0.911764 17.4572L53.2471 17.4572C44.4029 21.5523 38.6588 31.0166 38.3853 31.5626C38.2029 32.0176 38.2941 32.5637 38.75 32.8367C39.2059 33.0187 39.7529 32.9277 40.0265 32.4727C40.1176 32.2907 48.9618 17.4572 61.0882 17.4572C61.6353 17.4572 62 17.0932 62 16.5472C62 16.0012 61.6353 15.6372 61.0882 15.6372Z" fill="#F2F2F2"/>
</svg>
