<svg width="19" height="12" viewBox="0 0 19 12" fill="none" xmlns="http://www.w3.org/2000/svg">
<path d="M5.21848 0.359328C5.70373 0.355636 6.18798 0.403797 6.66299 0.502989C7.06177 0.581714 7.44155 0.736845 7.7814 0.959831C8.09239 1.17293 8.34165 1.46431 8.50401 1.80456C8.68498 2.21318 8.77164 2.65729 8.75757 3.10397C8.77565 3.59677 8.6431 4.08337 8.37759 4.49892C8.08948 4.8989 7.69926 5.2142 7.24769 5.41188C7.86167 5.56269 8.40121 5.92867 8.76835 6.44337C9.0625 6.92492 9.23279 7.47184 9.264 8.03526C9.29521 8.59868 9.18637 9.16106 8.9472 9.67215C8.73962 10.0723 8.43941 10.4171 8.07159 10.6778C7.6898 10.9439 7.26293 11.1386 6.81168 11.2524C6.33939 11.3773 5.85283 11.4401 5.3643 11.4392H0V0.359328H5.21848ZM4.90315 4.83293C5.28488 4.84816 5.66123 4.73901 5.97558 4.5219C6.12174 4.40095 6.23611 4.24608 6.30872 4.07081C6.38133 3.89553 6.40999 3.70516 6.39219 3.51628C6.40068 3.29629 6.35375 3.0777 6.25572 2.88058C6.16778 2.72051 6.03791 2.58741 5.88004 2.49557C5.71509 2.3975 5.533 2.33169 5.34347 2.30162C5.1367 2.26319 4.92669 2.2449 4.71639 2.24703H2.43793V4.83293H4.90315ZM5.03747 9.54573C5.26737 9.54711 5.49671 9.52302 5.7213 9.4739C5.92619 9.43337 6.12132 9.35361 6.29594 9.23901C6.46349 9.12805 6.59977 8.97594 6.69173 8.79725C6.79713 8.573 6.84643 8.32649 6.83539 8.07895C6.85747 7.85198 6.82551 7.62301 6.74211 7.41077C6.65871 7.19853 6.52625 7.00905 6.35556 6.85783C5.98357 6.60007 5.53691 6.4723 5.08488 6.49437H2.43433V9.54286L5.03747 9.54573Z" fill="white"/>
<path d="M12.7455 9.50842C13.1073 9.79453 13.5485 9.96223 14.009 9.98871C14.4695 10.0152 14.927 9.89915 15.3192 9.65639C15.5892 9.49198 15.7963 9.24188 15.9075 8.94599H17.8469C17.6279 9.78209 17.1216 10.5144 16.4168 11.0147C15.7214 11.4466 14.9141 11.6638 14.0959 11.6389C13.5117 11.6467 12.9314 11.5436 12.3856 11.3351C11.8976 11.1442 11.4566 10.8501 11.0927 10.4731C10.7349 10.0866 10.4582 9.63229 10.2788 9.13706C10.0823 8.58905 9.98497 8.01038 9.99152 7.42821C9.98747 6.8558 10.0878 6.28743 10.2875 5.75097C10.4718 5.2515 10.7566 4.7952 11.1245 4.41031C11.4923 4.02543 11.9352 3.72018 12.4259 3.51345C12.9549 3.29086 13.5242 3.17984 14.0981 3.18734C14.7153 3.17275 15.3267 3.30884 15.8795 3.58384C16.3735 3.83562 16.8017 4.19943 17.13 4.64622C17.4613 5.1029 17.7006 5.6196 17.8347 6.16759C17.9795 6.75079 18.0311 7.35323 17.9877 7.95257H12.2025C12.1797 8.52128 12.3738 9.07741 12.7455 9.50842ZM15.2754 5.29628C15.11 5.1397 14.9139 5.01915 14.6995 4.94225C14.4851 4.86534 14.2571 4.83376 14.0298 4.8495C13.7275 4.83867 13.427 4.9005 13.1535 5.02979C12.9394 5.13761 12.7495 5.28792 12.5954 5.47155C12.4597 5.63775 12.3592 5.82985 12.3002 6.03614C12.2479 6.20827 12.2141 6.3855 12.1996 6.56481H15.7825C15.7563 6.09797 15.5782 5.6525 15.2754 5.29628Z" fill="white"/>
<path d="M11.7507 1.10205H16.2387V2.19459H11.7507V1.10205Z" fill="white"/>
</svg>
