<svg width="1279" height="177" viewBox="0 0 1279 177" fill="none" xmlns="http://www.w3.org/2000/svg">
<mask id="path-1-outside-1_942_631" maskUnits="userSpaceOnUse" x="0.0786133" y="0.43103" width="1279" height="177" fill="black">
<rect fill="white" x="0.0786133" y="0.43103" width="1279" height="177"/>
<path d="M241.079 3.84228H1.07861V68.6423H74.0386V171.842H170.039V68.6423H241.079V3.84228ZM375.606 175.442C400.566 175.442 440.886 174.002 468.006 156.722C492.246 141.362 504.246 111.122 504.246 89.0423C504.246 66.9623 492.486 36.4823 468.006 21.3623C440.886 4.56228 404.886 1.44228 375.846 1.44228C347.046 1.44228 308.646 4.56228 281.526 21.3623C256.806 36.7223 245.766 66.7223 245.766 89.0423C245.766 111.122 257.286 141.122 281.526 156.722C308.646 174.242 350.646 175.442 375.606 175.442ZM375.126 122.642C365.526 122.642 349.446 122.162 338.886 115.442C329.526 109.442 325.206 97.9223 325.206 89.5223C325.206 80.8823 329.526 69.1223 338.886 63.3623C349.446 56.8823 365.766 56.6423 375.366 56.6423C384.966 56.6423 400.566 56.6423 410.886 63.3623C420.006 69.3623 424.806 80.8823 424.806 89.5223C424.806 97.9223 420.006 109.442 410.886 115.442C400.326 122.402 384.966 122.642 375.126 122.642ZM643.731 175.442C668.691 175.442 709.011 174.002 736.131 156.722C760.371 141.362 772.371 111.122 772.371 89.0423C772.371 66.9623 760.611 36.4823 736.131 21.3623C709.011 4.56228 673.011 1.44228 643.971 1.44228C615.171 1.44228 576.771 4.56228 549.651 21.3623C524.931 36.7223 513.891 66.7223 513.891 89.0423C513.891 111.122 525.411 141.122 549.651 156.722C576.771 174.242 618.771 175.442 643.731 175.442ZM643.251 122.642C633.651 122.642 617.571 122.162 607.011 115.442C597.651 109.442 593.331 97.9223 593.331 89.5223C593.331 80.8823 597.651 69.1223 607.011 63.3623C617.571 56.8823 633.891 56.6423 643.491 56.6423C653.091 56.6423 668.691 56.6423 679.011 63.3623C688.131 69.3623 692.931 80.8823 692.931 89.5223C692.931 97.9223 688.131 109.442 679.011 115.442C668.451 122.402 653.091 122.642 643.251 122.642ZM879.696 109.442V3.84228H784.416V171.842H1010.02V109.442H879.696ZM1145.97 174.242C1172.13 174.242 1215.33 174.962 1239.33 164.882C1270.77 151.682 1277.97 137.042 1277.97 115.442C1277.97 88.3223 1262.37 68.8823 1220.61 66.2423C1178.61 63.6023 1124.13 63.8423 1121.01 57.6023C1118.13 51.8423 1133.25 49.2023 1146.69 49.2023C1158.21 49.2023 1170.21 54.4823 1171.89 60.2423H1268.37C1268.37 43.6823 1259.25 27.8423 1232.13 13.6823C1207.41 0.722276 1173.09 1.44228 1146.93 1.44228C1120.77 1.44228 1085.49 0.722276 1061.49 10.8023C1030.05 24.0023 1019.73 38.6423 1019.73 60.2423C1019.73 86.8823 1036.29 107.042 1077.57 109.922C1110.21 112.082 1168.29 110.882 1171.89 116.642C1175.01 121.682 1162.05 126.482 1147.65 126.482C1134.69 126.482 1122.69 121.202 1121.01 115.442H1022.13C1022.13 132.002 1031.25 147.842 1058.37 162.002C1083.09 174.962 1119.81 174.242 1145.97 174.242Z"/>
</mask>
<path d="M241.079 3.84228H242.079V2.84228H241.079V3.84228ZM1.07861 3.84228V2.84228H0.0786133V3.84228H1.07861ZM1.07861 68.6423H0.0786133V69.6423H1.07861V68.6423ZM74.0386 68.6423H75.0386V67.6423H74.0386V68.6423ZM74.0386 171.842H73.0386V172.842H74.0386V171.842ZM170.039 171.842V172.842H171.039V171.842H170.039ZM170.039 68.6423V67.6423H169.039V68.6423H170.039ZM241.079 68.6423V69.6423H242.079V68.6423H241.079ZM468.006 156.722L467.471 155.878L467.469 155.879L468.006 156.722ZM468.006 21.3623L467.479 22.2124L467.481 22.2131L468.006 21.3623ZM281.526 21.3623L281 20.5122L280.998 20.5129L281.526 21.3623ZM281.526 156.722L282.069 155.882L282.067 155.881L281.526 156.722ZM338.886 115.442L338.346 116.284L338.349 116.286L338.886 115.442ZM338.886 63.3623L338.363 62.51L338.362 62.5106L338.886 63.3623ZM410.886 63.3623L411.436 62.5269L411.432 62.5243L410.886 63.3623ZM410.886 115.442L410.336 114.607L410.336 114.607L410.886 115.442ZM736.131 156.722L735.596 155.878L735.594 155.879L736.131 156.722ZM736.131 21.3623L735.604 22.2124L735.606 22.2131L736.131 21.3623ZM549.651 21.3623L549.125 20.5122L549.123 20.5129L549.651 21.3623ZM549.651 156.722L550.194 155.882L550.192 155.881L549.651 156.722ZM607.011 115.442L606.471 116.284L606.474 116.286L607.011 115.442ZM607.011 63.3623L606.488 62.51L606.487 62.5106L607.011 63.3623ZM679.011 63.3623L679.561 62.5269L679.557 62.5243L679.011 63.3623ZM679.011 115.442L678.461 114.607L678.461 114.607L679.011 115.442ZM879.696 109.442H878.696V110.442H879.696V109.442ZM879.696 3.84228H880.696V2.84228H879.696V3.84228ZM784.416 3.84228V2.84228H783.416V3.84228H784.416ZM784.416 171.842H783.416V172.842H784.416V171.842ZM1010.02 171.842V172.842H1011.02V171.842H1010.02ZM1010.02 109.442H1011.02V108.442H1010.02V109.442ZM1239.33 164.882L1238.94 163.96L1238.94 163.96L1239.33 164.882ZM1220.61 66.2423L1220.67 65.2443L1220.67 65.2443L1220.61 66.2423ZM1121.01 57.6023L1121.9 57.1551L1121.9 57.1551L1121.01 57.6023ZM1171.89 60.2423L1170.93 60.5223L1171.14 61.2423H1171.89V60.2423ZM1268.37 60.2423V61.2423H1269.37V60.2423H1268.37ZM1232.13 13.6823L1231.66 14.5679L1231.67 14.5687L1232.13 13.6823ZM1061.49 10.8023L1061.88 11.7243L1061.88 11.7243L1061.49 10.8023ZM1077.57 109.922L1077.5 110.92L1077.5 110.92L1077.57 109.922ZM1171.89 116.642L1172.74 116.116L1172.74 116.112L1171.89 116.642ZM1121.01 115.442L1121.97 115.162L1121.76 114.442H1121.01V115.442ZM1022.13 115.442V114.442H1021.13V115.442H1022.13ZM1058.37 162.002L1058.83 161.117L1058.83 161.116L1058.37 162.002ZM241.079 2.84228H1.07861V4.84228H241.079V2.84228ZM0.0786133 3.84228V68.6423H2.07861V3.84228H0.0786133ZM1.07861 69.6423H74.0386V67.6423H1.07861V69.6423ZM73.0386 68.6423V171.842H75.0386V68.6423H73.0386ZM74.0386 172.842H170.039V170.842H74.0386V172.842ZM171.039 171.842V68.6423H169.039V171.842H171.039ZM170.039 69.6423H241.079V67.6423H170.039V69.6423ZM242.079 68.6423V3.84228H240.079V68.6423H242.079ZM375.606 176.442C388.101 176.442 404.481 176.082 421.146 173.551C437.802 171.021 454.817 166.312 468.543 157.566L467.469 155.879C454.075 164.413 437.37 169.064 420.846 171.574C404.331 174.082 388.071 174.442 375.606 174.442V176.442ZM468.541 157.567C493.126 141.988 505.246 111.393 505.246 89.0423H503.246C503.246 110.851 491.366 140.736 467.471 155.878L468.541 157.567ZM505.246 89.0423C505.246 66.7019 493.373 35.8548 468.532 20.5115L467.481 22.2131C491.599 37.1097 503.246 67.2227 503.246 89.0423H505.246ZM468.533 20.5122C441.158 3.55439 404.911 0.44228 375.846 0.44228V2.44228C404.862 2.44228 440.614 5.57017 467.479 22.2124L468.533 20.5122ZM375.846 0.44228C347.033 0.44228 308.379 3.55161 281 20.5122L282.053 22.2124C308.914 5.57295 347.059 2.44228 375.846 2.44228V0.44228ZM280.998 20.5129C255.91 36.1015 244.766 66.474 244.766 89.0423H246.766C246.766 66.9706 257.702 37.3431 282.054 22.2117L280.998 20.5129ZM244.766 89.0423C244.766 111.385 256.4 141.741 280.985 157.563L282.067 155.881C258.173 140.504 246.766 110.859 246.766 89.0423H244.766ZM280.983 157.562C294.717 166.434 312.16 171.143 329.231 173.642C346.315 176.143 363.114 176.442 375.606 176.442V174.442C363.138 174.442 346.457 174.142 329.521 171.663C312.573 169.182 295.455 164.53 282.069 155.882L280.983 157.562ZM375.126 121.642C370.339 121.642 363.977 121.522 357.511 120.573C351.034 119.622 344.532 117.85 339.423 114.599L338.349 116.286C343.8 119.754 350.619 121.583 357.221 122.552C363.835 123.523 370.314 123.642 375.126 123.642V121.642ZM339.426 114.6C330.416 108.825 326.206 97.6647 326.206 89.5223H324.206C324.206 98.1799 328.636 110.06 338.346 116.284L339.426 114.6ZM326.206 89.5223C326.206 81.1222 330.427 69.742 339.41 64.2139L338.362 62.5106C328.625 68.5026 324.206 80.6424 324.206 89.5223H326.206ZM339.409 64.2146C344.515 61.0815 351.074 59.4262 357.617 58.5637C364.147 57.7029 370.57 57.6423 375.366 57.6423V55.6423C370.562 55.6423 364.025 55.7016 357.355 56.5809C350.698 57.4584 343.817 59.1631 338.363 62.51L339.409 64.2146ZM375.366 57.6423C380.172 57.6423 386.41 57.6435 392.726 58.4738C399.051 59.3052 405.361 60.9577 410.34 64.2003L411.432 62.5243C406.091 59.0468 399.441 57.3394 392.986 56.4908C386.523 55.6411 380.16 55.6423 375.366 55.6423V57.6423ZM410.336 64.1977C419.134 69.9859 423.806 81.1667 423.806 89.5223H425.806C425.806 80.5978 420.878 68.7387 411.436 62.5269L410.336 64.1977ZM423.806 89.5223C423.806 97.6337 419.138 108.817 410.336 114.607L411.436 116.278C420.875 110.068 425.806 98.2108 425.806 89.5223H423.806ZM410.336 114.607C405.228 117.974 398.911 119.743 392.592 120.663C386.28 121.581 380.043 121.642 375.126 121.642V123.642C380.049 123.642 386.412 123.583 392.88 122.642C399.341 121.701 405.984 119.871 411.436 116.277L410.336 114.607ZM643.731 176.442C656.226 176.442 672.606 176.082 689.271 173.551C705.927 171.021 722.942 166.312 736.668 157.566L735.594 155.879C722.2 164.413 705.495 169.064 688.971 171.574C672.456 174.082 656.196 174.442 643.731 174.442V176.442ZM736.666 157.567C761.251 141.988 773.371 111.393 773.371 89.0423H771.371C771.371 110.851 759.491 140.736 735.596 155.878L736.666 157.567ZM773.371 89.0423C773.371 66.7019 761.498 35.8548 736.657 20.5115L735.606 22.2131C759.724 37.1097 771.371 67.2227 771.371 89.0423H773.371ZM736.658 20.5122C709.283 3.55439 673.036 0.44228 643.971 0.44228V2.44228C672.987 2.44228 708.739 5.57017 735.604 22.2124L736.658 20.5122ZM643.971 0.44228C615.158 0.44228 576.504 3.55161 549.125 20.5122L550.178 22.2124C577.039 5.57295 615.184 2.44228 643.971 2.44228V0.44228ZM549.123 20.5129C524.035 36.1015 512.891 66.474 512.891 89.0423H514.891C514.891 66.9706 525.827 37.3431 550.179 22.2117L549.123 20.5129ZM512.891 89.0423C512.891 111.385 524.525 141.741 549.11 157.563L550.192 155.881C526.298 140.504 514.891 110.859 514.891 89.0423H512.891ZM549.108 157.562C562.842 166.434 580.285 171.143 597.356 173.642C614.44 176.143 631.239 176.442 643.731 176.442V174.442C631.263 174.442 614.582 174.142 597.646 171.663C580.698 169.182 563.58 164.53 550.194 155.882L549.108 157.562ZM643.251 121.642C638.464 121.642 632.102 121.522 625.636 120.573C619.159 119.622 612.657 117.85 607.548 114.599L606.474 116.286C611.925 119.754 618.744 121.583 625.346 122.552C631.96 123.523 638.439 123.642 643.251 123.642V121.642ZM607.551 114.6C598.541 108.825 594.331 97.6647 594.331 89.5223H592.331C592.331 98.1799 596.761 110.06 606.471 116.284L607.551 114.6ZM594.331 89.5223C594.331 81.1222 598.552 69.742 607.535 64.2139L606.487 62.5106C596.75 68.5026 592.331 80.6424 592.331 89.5223H594.331ZM607.534 64.2146C612.64 61.0815 619.199 59.4262 625.742 58.5637C632.272 57.7029 638.695 57.6423 643.491 57.6423V55.6423C638.687 55.6423 632.15 55.7016 625.48 56.5809C618.823 57.4584 611.942 59.1631 606.488 62.51L607.534 64.2146ZM643.491 57.6423C648.297 57.6423 654.535 57.6435 660.851 58.4738C667.176 59.3052 673.486 60.9577 678.465 64.2003L679.557 62.5243C674.216 59.0468 667.566 57.3394 661.111 56.4908C654.648 55.6411 648.285 55.6423 643.491 55.6423V57.6423ZM678.461 64.1977C687.259 69.9859 691.931 81.1667 691.931 89.5223H693.931C693.931 80.5978 689.003 68.7387 679.561 62.5269L678.461 64.1977ZM691.931 89.5223C691.931 97.6337 687.263 108.817 678.461 114.607L679.561 116.278C689 110.068 693.931 98.2108 693.931 89.5223H691.931ZM678.461 114.607C673.353 117.974 667.036 119.743 660.717 120.663C654.405 121.581 648.168 121.642 643.251 121.642V123.642C648.174 123.642 654.537 123.583 661.005 122.642C667.466 121.701 674.109 119.871 679.561 116.277L678.461 114.607ZM880.696 109.442V3.84228H878.696V109.442H880.696ZM879.696 2.84228H784.416V4.84228H879.696V2.84228ZM783.416 3.84228V171.842H785.416V3.84228H783.416ZM784.416 172.842H1010.02V170.842H784.416V172.842ZM1011.02 171.842V109.442H1009.02V171.842H1011.02ZM1010.02 108.442H879.696V110.442H1010.02V108.442ZM1145.97 175.242C1159.03 175.242 1176.41 175.423 1193.52 174.34C1210.61 173.259 1227.55 170.913 1239.72 165.804L1238.94 163.96C1227.11 168.931 1210.45 171.265 1193.4 172.344C1176.36 173.422 1159.06 173.242 1145.97 173.242V175.242ZM1239.72 165.804C1255.52 159.17 1265.37 152.118 1271.25 143.894C1277.15 135.65 1278.97 126.354 1278.97 115.442H1276.97C1276.97 126.13 1275.19 134.955 1269.63 142.73C1264.05 150.527 1254.58 157.394 1238.94 163.96L1239.72 165.804ZM1278.97 115.442C1278.97 101.685 1275.01 89.751 1265.63 80.9339C1256.28 72.136 1241.68 66.5725 1220.67 65.2443L1220.55 67.2403C1241.3 68.5521 1255.38 74.0286 1264.26 82.3906C1273.13 90.7336 1276.97 102.079 1276.97 115.442H1278.97ZM1220.67 65.2443C1199.7 63.9259 1175.47 63.3197 1156.28 62.2738C1146.66 61.749 1138.28 61.1132 1132.12 60.2238C1129.04 59.7785 1126.56 59.275 1124.76 58.704C1123.87 58.4182 1123.18 58.1264 1122.69 57.8368C1122.18 57.5387 1121.97 57.2966 1121.9 57.1551L1120.11 58.0495C1120.43 58.688 1121.02 59.1753 1121.67 59.5605C1122.34 59.9542 1123.18 60.2996 1124.16 60.6096C1126.11 61.2302 1128.72 61.7523 1131.84 62.2033C1138.09 63.1063 1146.54 63.7456 1156.17 64.2708C1175.51 65.3249 1199.52 65.9186 1220.55 67.2403L1220.67 65.2443ZM1121.9 57.1551C1121.63 56.6158 1121.61 56.1938 1121.7 55.8421C1121.8 55.4716 1122.06 55.0585 1122.57 54.6161C1123.62 53.7103 1125.48 52.8875 1127.99 52.2076C1132.97 50.8597 1140.01 50.2023 1146.69 50.2023V48.2023C1139.92 48.2023 1132.69 48.8649 1127.47 50.277C1124.88 50.9771 1122.66 51.8942 1121.26 53.1035C1120.55 53.7186 1120 54.4568 1119.77 55.3331C1119.53 56.2282 1119.66 57.1488 1120.11 58.0495L1121.9 57.1551ZM1146.69 50.2023C1152.31 50.2023 1158.05 51.4929 1162.58 53.478C1164.84 54.4702 1166.77 55.6234 1168.22 56.8505C1169.68 58.0858 1170.58 59.3406 1170.93 60.5223L1172.85 59.9623C1172.35 58.264 1171.13 56.6988 1169.51 55.3241C1167.88 53.9412 1165.77 52.6943 1163.38 51.6465C1158.61 49.5517 1152.59 48.2023 1146.69 48.2023V50.2023ZM1171.89 61.2423H1268.37V59.2423H1171.89V61.2423ZM1269.37 60.2423C1269.37 51.7615 1267.03 43.4535 1261.23 35.4743C1255.44 27.5117 1246.24 19.922 1232.59 12.7958L1231.67 14.5687C1245.14 21.6026 1254.06 29.0128 1259.61 36.6503C1265.15 44.2711 1267.37 52.1631 1267.37 60.2423H1269.37ZM1232.59 12.7966C1220.07 6.23037 1205.16 3.1524 1190.16 1.70689C1175.17 0.2612 1159.99 0.44228 1146.93 0.44228V2.44228C1160.03 2.44228 1175.09 2.26336 1189.97 3.69767C1204.86 5.13215 1219.47 8.17419 1231.66 14.5679L1232.59 12.7966ZM1146.93 0.44228C1133.87 0.44228 1118.46 0.261628 1103.33 1.34483C1088.2 2.4275 1073.25 4.77725 1061.1 9.88031L1061.88 11.7243C1073.73 6.74731 1088.42 4.41706 1103.47 3.33973C1118.52 2.26293 1133.83 2.44228 1146.93 2.44228V0.44228ZM1061.1 9.88026C1045.31 16.5093 1034.7 23.5491 1028.04 31.7416C1021.36 39.9665 1018.73 49.2648 1018.73 60.2423H1020.73C1020.73 49.6198 1023.26 40.798 1029.59 33.003C1035.96 25.1755 1046.22 18.2953 1061.88 11.7243L1061.1 9.88026ZM1018.73 60.2423C1018.73 73.7786 1022.94 85.765 1032.48 94.7214C1042.01 103.661 1056.72 109.47 1077.5 110.92L1077.64 108.925C1057.14 107.494 1042.93 101.783 1033.85 93.2632C1024.79 84.7596 1020.73 73.346 1020.73 60.2423H1018.73ZM1077.5 110.92C1093.84 112.001 1116.58 112.243 1135.58 112.932C1145.11 113.277 1153.69 113.733 1160.11 114.46C1163.32 114.823 1165.96 115.251 1167.89 115.756C1168.85 116.008 1169.61 116.272 1170.16 116.54C1170.73 116.819 1170.96 117.049 1171.04 117.172L1172.74 116.112C1172.36 115.515 1171.72 115.08 1171.03 114.743C1170.32 114.394 1169.43 114.091 1168.39 113.821C1166.33 113.28 1163.58 112.84 1160.33 112.472C1153.83 111.736 1145.18 111.278 1135.65 110.933C1116.56 110.241 1093.94 110.003 1077.63 108.924L1077.5 110.92ZM1171.04 117.169C1171.32 117.626 1171.39 118.021 1171.34 118.377C1171.29 118.748 1171.1 119.175 1170.69 119.652C1169.84 120.629 1168.24 121.628 1165.97 122.522C1161.47 124.295 1154.76 125.482 1147.65 125.482V127.482C1154.94 127.482 1161.91 126.27 1166.7 124.383C1169.08 123.447 1171.04 122.301 1172.2 120.96C1172.79 120.278 1173.21 119.504 1173.32 118.648C1173.44 117.776 1173.24 116.918 1172.74 116.116L1171.04 117.169ZM1147.65 125.482C1141.29 125.482 1135.19 124.186 1130.49 122.201C1128.14 121.209 1126.17 120.055 1124.7 118.83C1123.22 117.596 1122.31 116.343 1121.97 115.162L1120.05 115.722C1120.54 117.422 1121.77 118.988 1123.42 120.365C1125.08 121.749 1127.23 122.996 1129.71 124.043C1134.67 126.138 1141.04 127.482 1147.65 127.482V125.482ZM1121.01 114.442H1022.13V116.442H1121.01V114.442ZM1021.13 115.442C1021.13 123.923 1023.47 132.231 1029.27 140.21C1035.06 148.173 1044.26 155.763 1057.91 162.889L1058.83 161.116C1045.36 154.082 1036.44 146.672 1030.89 139.034C1025.35 131.413 1023.13 123.521 1023.13 115.442H1021.13ZM1057.9 162.888C1070.43 169.457 1085.95 172.533 1101.54 173.978C1117.13 175.423 1132.91 175.242 1145.97 175.242V173.242C1132.87 173.242 1117.2 173.421 1101.72 171.987C1086.23 170.551 1071.02 167.507 1058.83 161.117L1057.9 162.888Z" fill="#9D84FF" mask="url(#path-1-outside-1_942_631)"/>
</svg>
