<svg width="41" height="22" viewBox="0 0 41 22" fill="none" xmlns="http://www.w3.org/2000/svg">
<path d="M0.871437 12.021C8.69497 12.021 14.4008 21.5909 14.4597 21.7084C14.6361 22.0019 14.9891 22.0606 15.2832 21.9432C15.5773 21.7671 15.6361 21.4148 15.5185 21.1213C15.342 20.769 11.6361 14.663 5.93026 12.021L39.695 12.021C40.0479 12.021 40.2832 11.7861 40.2832 11.4339C40.2832 11.0816 40.0479 10.8468 39.695 10.8468L5.93026 10.8468C11.6361 8.20475 15.342 2.09877 15.5185 1.7465C15.6361 1.45295 15.5773 1.10068 15.2832 0.924543C14.9891 0.80712 14.6361 0.865831 14.4597 1.15939C14.4008 1.27681 8.69497 10.8468 0.871437 10.8468C0.518497 10.8468 0.283203 11.0816 0.283203 11.4339C0.283203 11.7861 0.518497 12.021 0.871437 12.021Z" fill="#F2F2F2"/>
</svg>
