<svg width="201" height="192" viewBox="0 0 201 192" fill="none" xmlns="http://www.w3.org/2000/svg">
<path d="M199.044 96.1377C199.044 148.455 154.906 190.933 100.374 190.933C45.8421 190.933 1.70361 148.455 1.70361 96.1377C1.70361 43.8207 45.8421 1.34229 100.374 1.34229C154.906 1.34229 199.044 43.8207 199.044 96.1377Z" stroke="white" stroke-width="2"/>
<path d="M198.851 96.1377C198.842 96.1519 198.832 96.1664 198.823 96.1811C198.569 96.5624 198.185 97.1252 197.673 97.8437C196.648 99.2807 195.105 101.34 193.046 103.814C188.927 108.762 182.745 115.365 174.502 121.967C158.017 135.17 133.313 148.357 100.374 148.357C67.4351 148.357 42.7313 135.17 26.2463 121.967C18.0029 115.365 11.8206 108.762 7.7016 103.814C5.64251 101.34 4.10026 99.2807 3.07502 97.8437C2.56243 97.1252 2.17918 96.5624 1.9253 96.1811C1.91548 96.1664 1.90585 96.1519 1.89642 96.1377C1.90585 96.1235 1.91548 96.109 1.9253 96.0942C2.17918 95.713 2.56243 95.1501 3.07502 94.4317C4.10026 92.9947 5.64251 90.9356 7.7016 88.4618C11.8206 83.5133 18.0029 76.9108 26.2463 70.3083C42.7313 57.1049 67.4351 43.918 100.374 43.918C133.313 43.918 158.017 57.1049 174.502 70.3083C182.745 76.9108 188.927 83.5133 193.046 88.4618C195.105 90.9356 196.648 92.9947 197.673 94.4317C198.185 95.1501 198.569 95.713 198.823 96.0942C198.832 96.109 198.842 96.1235 198.851 96.1377Z" stroke="white" stroke-width="2"/>
<path d="M124.013 128.07C142.362 128.07 157.236 113.773 157.236 96.1379C157.236 78.5024 142.362 64.2061 124.013 64.2061C105.664 64.2061 90.7896 78.5024 90.7896 96.1379C90.7896 113.773 105.664 128.07 124.013 128.07Z" fill="white"/>
</svg>
