<?xml version="1.0" encoding="UTF-8"?><svg id="a" xmlns="http://www.w3.org/2000/svg" viewBox="0 0 330.03 330"><defs><style>.b{fill:#ae94ff;}</style></defs><g><path class="b" d="M2.81,195.98l19.91-5.76,2.88,9.95-7.02,12.51,9.81-2.84,2.88,9.96-19.91,5.76-2.89-9.98,7-12.47-9.78,2.83-2.88-9.95Z"/><path class="b" d="M6.96,178.92l1.59-.12-1.18-15.86,5.76-.43,1.18,15.86,1.8-.13-1.21-16.18,5.76-.43,2.09,28.05-20.67,1.54-2.09-28.05,5.76-.43,1.21,16.18Z"/><path class="b" d="M12.93,139.52l11.35-7.26-1.54,12.28-3.21,2.04,2.6,2.8-1.54,12.28-9.2-9.87L.03,159.09l1.54-12.28,3.21-2.07-2.61-2.77,1.54-12.28,9.21,9.84Z"/><path class="b" d="M21.72,100.46l-2.83,8.29,12.05,4.11-3.82,11.21-12.05-4.11-2.91,8.52-7.57-2.58,9.56-28.02,7.57,2.58Z"/><path class="b" d="M50.67,56.72c1.57,1.22,3.37,3.14,3.43,5.24,.05,2.44-.92,4.08-2.93,6.68l-7.03,9.05,4.21,3.27-6.35,8.19-16.37-12.71,13.38-17.24c1.16-1.5,3.3-3.77,5.54-4.43,2.26-.45,4.43,.62,6.13,1.95Zm-6.8,8.85c-.21-.16-.6-.24-1.1,.12-.58,.41-1.19,1.29-1.61,1.83l-3.81,4.91,1.57,1.22,3.81-4.91c.45-.59,1.05-1.36,1.35-2.03,.23-.53,0-.97-.21-1.14Z"/><path class="b" d="M78.09,42.35l6.11,2.88-8.2,6.86-5.33-2.49-5.02,4.2,3.42,4.09-7.76,6.5-13.3-15.89,16.35-13.68c1.41-1.18,3.94-2.91,6.22-3.04,2.29,.06,4.15,1.59,5.53,3.24,1.27,1.52,2.65,3.77,2.28,5.81-.12,.64-.18,1.12-.3,1.53Zm-16.66,6.38l4.65-3.89c.54-.46,1.29-1.08,1.7-1.66,.34-.47,.21-.95,.04-1.15s-.53-.36-1.1-.12c-.63,.26-1.39,.97-1.91,1.41l-4.65,3.89,1.27,1.52Z"/><path class="b" d="M87.38,41.26c-3.54-.33-6.51-2.96-7.76-5.38-1.27-2.44-1.76-6.36,.07-9.44,2.02-3.38,6.04-5.9,9.2-7.54,3.18-1.65,7.3-3.35,11.22-3.05,3.54,.26,6.56,2.94,7.81,5.35,1.25,2.42,1.66,6.41-.12,9.47-1.99,3.43-6.32,5.88-9.05,7.3-2.73,1.42-7.4,3.67-11.37,3.29Zm11.82-11.87c.66-1.18,.53-2.71,.05-3.63-.49-.95-1.67-1.93-3.01-2.07-1.51-.15-3.22,.74-4.27,1.28-1.05,.54-2.82,1.5-3.61,2.81-.7,1.16-.5,2.7-.01,3.64,.48,.92,1.6,1.94,2.97,2.06,1.54,.14,3.33-.72,4.38-1.27,1.08-.56,2.75-1.46,3.51-2.82Z"/><path class="b" d="M120.07,16.23c.59,2.14,2.27,3.58,4.96,2.85,2.57-.7,2.61-3.02,1.98-5.33l-2.28-8.19,10.28-2.82,2.33,8.14c1.45,5.28,.44,8.44-.95,10.18-1.45,1.75-2.98,4.13-8.83,5.74-5.28,1.45-9,1-11.12,.07-2.1-.93-4.97-2.9-6.34-7.87l9.98-2.77Z"/><path class="b" d="M151.64,6.91l.11,1.59,15.86-1.13,.41,5.76-15.86,1.13,.13,1.8,16.18-1.15,.41,5.76-28.06,2-1.47-20.67,28.06-2,.41,5.76-16.18,1.15Z"/><path class="b" d="M176.04,2.65c3.49-1.46,8.66-1.22,11.82-.78,2.99,.41,8.16,1.94,10.96,3.94,3.07,2.19,3.65,5.17,3.39,8.06l-9.74-1.35c-.02-.93-.34-1.87-1.32-2.54-1.09-.75-3.26-1.26-4.26-1.4-1.08-.15-3.2-.38-4.54,.18-1.33,.56-1.97,1.91-2.12,2.99-.15,1.09,.13,2.53,1.23,3.4,1.18,.94,3.16,1.34,4.31,1.49,1.23,.17,3.03,.33,4.49-.27,.92-.38,1.58-1.27,1.9-2.1l9.76,1.36c-.61,2.46-2.53,5.54-5.42,6.72-3.71,1.52-8.38,1.17-11.61,.72-2.96-.41-8.14-1.4-11.18-3.88-2.79-2.3-3.59-6-3.2-8.78,.4-2.87,2.01-6.3,5.5-7.75Z"/><path class="b" d="M232.77,23.21l-8.23-3.02-4.39,11.95-11.12-4.08,4.39-11.95-8.45-3.1,2.75-7.51,27.8,10.2-2.75,7.51Z"/><path class="b" d="M326.88,132.4l-19.85,5.95-2.98-9.93,6.89-12.58-9.78,2.93-2.97-9.93,19.85-5.95,2.98,9.95-6.87,12.54,9.76-2.92,2.98,9.93Z"/><path class="b" d="M322.9,149.51l-1.59,.13,1.34,15.85-5.75,.49-1.34-15.85-1.8,.15,1.37,16.17-5.75,.49-2.37-28.03,20.66-1.75,2.37,28.03-5.75,.49-1.37-16.17Z"/><path class="b" d="M317.32,188.98l-11.28,7.37,1.42-12.29,3.19-2.08-2.63-2.78,1.42-12.29,9.3,9.78,11.29-7.4-1.42,12.29-3.19,2.1,2.63,2.75-1.42,12.29-9.3-9.75Z"/><path class="b" d="M308.93,228.11l2.75-8.32-12.09-3.99,3.71-11.25,12.09,3.99,2.82-8.55,7.59,2.51-9.28,28.12-7.59-2.51Z"/><path class="b" d="M280.42,272.11c-1.58-1.2-3.4-3.11-3.48-5.21-.08-2.44,.88-4.09,2.87-6.71l6.94-9.12-4.24-3.23,6.27-8.25,16.49,12.54-13.21,17.37c-1.15,1.51-3.27,3.8-5.5,4.49-2.26,.48-4.43-.58-6.15-1.89Zm6.71-8.92c.21,.16,.6,.24,1.1-.13,.58-.42,1.17-1.3,1.59-1.84l3.76-4.95-1.58-1.2-3.76,4.95c-.45,.59-1.04,1.37-1.33,2.04-.22,.54,0,.97,.22,1.13Z"/><path class="b" d="M253.13,286.78l-6.14-2.82,8.13-6.94,5.35,2.44,4.98-4.25-3.46-4.05,7.7-6.58,13.46,15.76-16.21,13.84c-1.4,1.19-3.91,2.95-6.19,3.1-2.29-.03-4.16-1.55-5.57-3.19-1.29-1.51-2.69-3.74-2.34-5.79,.11-.64,.17-1.12,.29-1.53Zm16.6-6.55l-4.62,3.94c-.54,.46-1.28,1.1-1.69,1.67-.33,.48-.2,.95-.03,1.15,.17,.2,.54,.36,1.1,.11,.63-.27,1.38-.98,1.9-1.43l4.62-3.94-1.29-1.51Z"/><path class="b" d="M243.84,287.96c3.54,.3,6.54,2.9,7.82,5.3,1.29,2.43,1.83,6.34,.03,9.45-1.98,3.4-5.98,5.96-9.12,7.63-3.16,1.68-7.27,3.43-11.19,3.17-3.54-.23-6.59-2.87-7.87-5.27-1.28-2.41-1.72-6.39,.03-9.47,1.95-3.45,6.26-5.94,8.98-7.39,2.72-1.45,7.36-3.75,11.33-3.41Zm-11.7,11.99c-.65,1.18-.5,2.71-.02,3.63,.5,.94,1.69,1.92,3.03,2.04,1.51,.13,3.21-.77,4.26-1.33,1.05-.56,2.81-1.53,3.59-2.84,.69-1.17,.47-2.7-.02-3.64-.49-.92-1.62-1.92-2.99-2.03-1.54-.12-3.32,.76-4.37,1.31-1.07,.57-2.73,1.49-3.48,2.86Z"/><path class="b" d="M211.41,313.32c-.61-2.13-2.31-3.56-4.98-2.8-2.56,.73-2.58,3.04-1.92,5.35l2.36,8.16-10.25,2.92-2.41-8.12c-1.5-5.27-.53-8.44,.85-10.19,1.44-1.76,2.94-4.16,8.77-5.83,5.27-1.5,8.99-1.08,11.12-.19,2.11,.91,5,2.85,6.41,7.81l-9.96,2.87Z"/><path class="b" d="M179.9,322.94l-.13-1.59-15.85,1.28-.46-5.75,15.85-1.28-.15-1.8-16.17,1.3-.46-5.75,28.04-2.26,1.66,20.66-28.04,2.26-.46-5.75,16.17-1.3Z"/><path class="b" d="M155.58,327.45c-3.47,1.49-8.65,1.31-11.82,.9-3-.39-8.18-1.86-11-3.83-3.09-2.16-3.7-5.13-3.47-8.03l9.75,1.26c.03,.93,.36,1.87,1.35,2.53,1.1,.74,3.27,1.23,4.27,1.36,1.09,.14,3.21,.35,4.54-.22,1.33-.58,1.95-1.93,2.09-3.01,.14-1.09-.15-2.53-1.27-3.39-1.19-.93-3.18-1.3-4.32-1.45-1.23-.16-3.04-.3-4.49,.32-.92,.39-1.57,1.29-1.88,2.11l-9.78-1.26c.59-2.46,2.48-5.56,5.35-6.77,3.69-1.55,8.37-1.25,11.6-.83,2.97,.38,8.16,1.32,11.22,3.77,2.81,2.27,3.65,5.96,3.29,8.75-.37,2.88-1.95,6.32-5.42,7.81Z"/><path class="b" d="M98.66,307.46l8.26,2.93,4.26-12,11.16,3.96-4.26,12,8.48,3.01-2.68,7.53-27.9-9.91,2.68-7.53Z"/></g><path class="b" d="M261.48,47.15l3.11-3.11,3.98,3.98,2.87,3.94,.83-.34-.73-4.81v-5.64h4.37l.05,5.59-.78,4.86,.83,.34,2.92-3.98,3.94-3.94,3.11,3.11-3.94,3.94-3.98,2.92,.34,.83,4.86-.78,5.59,.05v4.37l-5.59,.05-4.86-.78-.34,.83,3.94,2.87,3.98,3.98-3.11,3.11-3.98-3.98-2.87-3.94-.83,.34,.78,4.86-.05,5.59h-4.37v-5.64l.78-4.86-.83-.34-2.92,3.98-3.94,3.94-3.11-3.11,3.94-3.94,3.98-2.92-.34-.83-4.86,.78h-5.64v-4.37h5.64l4.81,.73,.34-.83-3.94-2.87-3.98-3.98Z"/><path class="b" d="M47.86,260.77l3.11-3.11,3.98,3.98,2.87,3.94,.83-.34-.73-4.81v-5.64h4.37l.05,5.59-.78,4.86,.83,.34,2.92-3.98,3.94-3.94,3.11,3.11-3.94,3.94-3.98,2.92,.34,.83,4.86-.78,5.59,.05v4.37l-5.59,.05-4.86-.78-.34,.83,3.94,2.87,3.98,3.98-3.11,3.11-3.98-3.98-2.87-3.94-.83,.34,.78,4.86-.05,5.59h-4.37v-5.64l.78-4.86-.83-.34-2.92,3.98-3.94,3.94-3.11-3.11,3.94-3.94,3.98-2.92-.34-.83-4.86,.78h-5.64v-4.37h5.64l4.81,.73,.34-.83-3.94-2.87-3.98-3.98Z"/></svg>