<?xml version="1.0" encoding="UTF-8"?><svg id="a" xmlns="http://www.w3.org/2000/svg" viewBox="0 0 199.35 191.59"><defs><style>.b{fill:none;stroke:#ae94ff;stroke-width:2px;}</style></defs><path class="b" d="M198.35,95.8c0,52.32-44.14,94.8-98.67,94.8S1.01,148.11,1.01,95.8,45.15,1,99.68,1s98.67,42.48,98.67,94.8Z"/><path class="b" d="M198.15,95.8s-.02,.03-.03,.04c-.25,.38-.64,.94-1.15,1.66-1.03,1.44-2.57,3.5-4.63,5.97-4.12,4.95-10.3,11.55-18.54,18.15-16.49,13.2-41.19,26.39-74.13,26.39s-57.64-13.19-74.13-26.39c-8.24-6.6-14.43-13.21-18.54-18.15-2.06-2.47-3.6-4.53-4.63-5.97-.51-.72-.9-1.28-1.15-1.66l-.03-.04,.03-.04c.25-.38,.64-.94,1.15-1.66,1.03-1.44,2.57-3.5,4.63-5.97,4.12-4.95,10.3-11.55,18.54-18.15,16.49-13.2,41.19-26.39,74.13-26.39s57.64,13.19,74.13,26.39c8.24,6.6,14.43,13.21,18.54,18.15,2.06,2.47,3.6,4.53,4.63,5.97,.51,.72,.9,1.28,1.15,1.66,0,.01,.02,.03,.03,.04Z"/></svg>