<svg width="168" height="13" viewBox="0 0 168 13" fill="none" xmlns="http://www.w3.org/2000/svg">
<path d="M13.348 4.3037C13.348 4.3037 11.885 8.7037 11.775 9.0807C11.732 8.7067 10.666 0.793701 10.666 0.793701C8.166 0.793701 6.843 2.4937 6.141 4.3037C6.141 4.3037 4.365 8.7237 4.221 9.0977C4.213 8.7487 3.95 4.3527 3.95 4.3527C3.8385 3.3807 3.3753 2.483 2.6477 1.8289C1.9201 1.1749 0.9784 0.809502 0 0.801702L2.047 12.7937C3.1088 12.7872 4.1411 12.4438 4.9953 11.813C5.8495 11.1822 6.4814 10.2966 6.8 9.2837C6.8 9.2837 8.365 5.3837 8.432 5.2047C8.45 5.3757 9.558 12.7937 9.558 12.7937C10.6039 12.8075 11.6278 12.4938 12.4865 11.8964C13.3451 11.2991 13.9953 10.4481 14.346 9.4627L18 0.793701C16.9493 0.797001 15.928 1.1409 15.0892 1.7737C14.2505 2.4065 13.6395 3.2943 13.348 4.3037Z" fill="white"/>
<path d="M35.148 10.7936H37.01V6.98564H38.41C40.552 6.98564 42.078 6.04764 42.078 3.93364V3.87764C42.078 1.77764 40.608 0.783643 38.368 0.783643H35.148V10.7936ZM37.01 5.64164V2.22564H38.368C39.558 2.22564 40.258 2.68764 40.258 3.87764V3.93364C40.258 5.03964 39.6 5.64164 38.368 5.64164H37.01ZM43.539 10.7936H45.233V6.98564C45.233 5.43164 46.133 4.95564 47.613 4.94164V3.35964C47.1118 3.33214 46.6144 3.45994 46.1885 3.72544C45.7626 3.99104 45.4289 4.38154 45.233 4.84364V3.47164H43.539V10.7936ZM52.239 9.61764C50.951 9.61764 50.209 8.67964 50.209 7.18164V7.06964C50.209 5.55764 50.979 4.64764 52.239 4.64764C53.499 4.64764 54.255 5.57164 54.255 7.08364V7.18364C54.259 8.67964 53.5 9.61764 52.243 9.61764H52.239ZM52.225 10.9336C52.7266 10.9586 53.2278 10.8783 53.6965 10.698C54.1653 10.5177 54.5911 10.2413 54.9466 9.88674C55.3021 9.53204 55.5795 9.10684 55.7609 8.63864C55.9423 8.17034 56.0238 7.66924 56 7.16764V7.05564C55.9944 6.05864 55.5931 5.10474 54.8842 4.40374C54.1753 3.70274 53.217 3.31204 52.22 3.31764C51.2231 3.32324 50.2692 3.72454 49.5681 4.43344C48.8671 5.14234 48.4764 6.10064 48.482 7.09764V7.20964C48.4625 7.70584 48.5463 8.20074 48.728 8.66284C48.9097 9.12504 49.1854 9.54444 49.5377 9.89454C49.8899 10.2445 50.311 10.5177 50.7743 10.6965C51.2375 10.8754 51.7329 10.9561 52.229 10.9336H52.225ZM57.82 10.7936H59.514V4.74564H61.18V3.47164H59.514V2.42164C59.514 1.79164 59.794 1.34364 60.48 1.34364C60.7419 1.34194 61.0023 1.38454 61.25 1.46964V0.153643C60.9384 0.052143 60.6116 0.00474358 60.284 0.0136436C59.95 -0.0234564 59.612 0.0153432 59.295 0.127143C58.9781 0.238943 58.6905 0.420744 58.4537 0.659144C58.2168 0.897544 58.0368 1.18634 57.9271 1.50394C57.8174 1.82154 57.7808 2.15984 57.82 2.49364V3.47364H56.826V4.74764H57.82V10.7936ZM65.545 10.9336C67.421 10.9336 68.667 10.0936 68.905 8.55364H67.266C67.14 9.26764 66.608 9.67364 65.586 9.67364C64.326 9.67364 63.626 8.88964 63.57 7.50364H68.932V7.01364C68.932 4.39564 67.294 3.31364 65.474 3.31364C64.9807 3.30154 64.4903 3.39224 64.0339 3.57974C63.5775 3.76734 63.1651 4.04774 62.8228 4.40324C62.4805 4.75864 62.2159 5.18134 62.0457 5.64454C61.8754 6.10764 61.8034 6.60114 61.834 7.09364V7.20564C61.8019 7.70194 61.8758 8.19944 62.0506 8.66504C62.2255 9.13074 62.4973 9.55384 62.8482 9.90644C63.199 10.2589 63.6208 10.5328 64.0856 10.7099C64.5504 10.887 65.0485 10.9633 65.545 10.9336ZM63.6 6.36964C63.6151 5.88204 63.8193 5.41944 64.1694 5.07974C64.5196 4.74004 64.9882 4.54994 65.476 4.54964C66.526 4.54964 67.17 5.10964 67.254 6.36964H63.6ZM73.02 10.9336C74.896 10.9336 75.946 10.0796 75.946 8.59564C75.946 7.04164 74.924 6.62164 73.202 6.35564C72.04 6.15564 71.69 5.94964 71.69 5.41764C71.69 4.88564 72.124 4.54964 72.852 4.54964C73.0021 4.52554 73.1556 4.53194 73.3031 4.56864C73.4507 4.60524 73.5893 4.67124 73.7107 4.76284C73.8321 4.85434 73.9338 4.96944 74.0096 5.10114C74.0854 5.23294 74.1339 5.37864 74.152 5.52964H75.72C75.538 3.87764 74.348 3.31764 72.85 3.31764C71.478 3.31764 70.106 4.04564 70.106 5.51764C70.106 6.88964 70.82 7.43564 72.752 7.74364C73.83 7.92564 74.32 8.14964 74.32 8.75164C74.32 9.35364 73.914 9.68964 73.004 9.68964C72.01 9.68964 71.632 9.25564 71.548 8.51364H69.948C70.024 10.0656 71.13 10.9336 73.02 10.9336ZM79.938 10.9336C81.814 10.9336 82.864 10.0796 82.864 8.59564C82.864 7.04164 81.842 6.62164 80.12 6.35564C78.958 6.15564 78.608 5.94964 78.608 5.41764C78.608 4.88564 79.042 4.54964 79.77 4.54964C79.9201 4.52554 80.0736 4.53194 80.2211 4.56864C80.3687 4.60524 80.5073 4.67124 80.6287 4.76284C80.7501 4.85434 80.8518 4.96944 80.9276 5.10114C81.0034 5.23294 81.0519 5.37864 81.07 5.52964H82.64C82.458 3.87764 81.268 3.31764 79.77 3.31764C78.398 3.31764 77.026 4.04564 77.026 5.51764C77.026 6.88964 77.74 7.43564 79.672 7.74364C80.75 7.92564 81.24 8.14964 81.24 8.75164C81.24 9.35364 80.834 9.68964 79.924 9.68964C78.93 9.68964 78.552 9.25564 78.468 8.51364H76.868C76.942 10.0656 78.048 10.9336 79.938 10.9336ZM84.392 10.7936H86.086V3.47164H84.392V10.7936ZM85.218 2.26764C85.409 2.26094 85.595 2.19794 85.75 2.08664C85.906 1.97524 86.026 1.82044 86.094 1.64154C86.162 1.46264 86.176 1.26754 86.134 1.08064C86.092 0.893843 85.996 0.723544 85.858 0.591044C85.72 0.458544 85.545 0.369743 85.357 0.335743C85.168 0.301643 84.974 0.324044 84.798 0.399844C84.622 0.475644 84.473 0.601643 84.368 0.762043C84.264 0.922443 84.209 1.11014 84.21 1.30164C84.212 1.43164 84.239 1.55994 84.291 1.67924C84.342 1.79854 84.417 1.90624 84.511 1.99614C84.605 2.08614 84.716 2.15644 84.837 2.20304C84.959 2.24964 85.088 2.27164 85.218 2.26764ZM91.427 9.61764C90.139 9.61764 89.397 8.67964 89.397 7.18164V7.06964C89.397 5.55764 90.167 4.64764 91.427 4.64764C92.687 4.64764 93.443 5.57164 93.443 7.08364V7.18364C93.443 8.67964 92.687 9.61764 91.427 9.61764ZM91.413 10.9336C91.914 10.9573 92.414 10.8761 92.882 10.6952C93.349 10.5143 93.774 10.2377 94.129 9.88324C94.483 9.52864 94.76 9.10394 94.941 8.63634C95.121 8.16874 95.203 7.66844 95.179 7.16764V7.05564C95.173 6.05864 94.772 5.10474 94.063 4.40374C93.354 3.70274 92.396 3.31204 91.399 3.31764C90.402 3.32324 89.448 3.72454 88.747 4.43344C88.046 5.14234 87.655 6.10064 87.661 7.09764V7.20964C87.641 7.70624 87.725 8.20154 87.907 8.66414C88.089 9.12664 88.366 9.54624 88.718 9.89644C89.071 10.2465 89.493 10.5195 89.957 10.6981C90.421 10.8766 90.917 10.9568 91.413 10.9336ZM96.713 10.7936H98.4V6.48164C98.381 6.24944 98.413 6.01604 98.492 5.79704C98.572 5.57814 98.698 5.37894 98.861 5.21294C99.024 5.04694 99.221 4.91804 99.439 4.83494C99.657 4.75194 99.89 4.71664 100.122 4.73164C101.13 4.73164 101.578 5.23164 101.578 6.34164V10.7936H103.272V6.18764C103.272 4.17164 102.236 3.31764 100.766 3.31764C100.287 3.28934 99.811 3.39814 99.391 3.63124C98.972 3.86434 98.628 4.21204 98.4 4.63364V3.47164H96.706L96.713 10.7936ZM107.149 10.9336C107.58 10.9647 108.011 10.886 108.403 10.7048C108.795 10.5235 109.134 10.2458 109.389 9.89764V10.7936H111.055V5.99364C111.055 3.99364 109.767 3.31964 108.129 3.31964C106.491 3.31964 105.129 4.03364 104.993 5.74164H106.631C106.639 5.57124 106.683 5.40434 106.76 5.25194C106.836 5.09954 106.944 4.96484 107.076 4.85664C107.208 4.74844 107.361 4.66914 107.526 4.62384C107.69 4.57854 107.862 4.56824 108.031 4.59364C109.025 4.59364 109.361 5.08364 109.361 6.06364V6.44164H108.451C106.351 6.44164 104.699 7.05764 104.699 8.76564C104.695 10.2936 105.8 10.9336 107.145 10.9336H107.149ZM107.555 9.71564C106.715 9.71564 106.379 9.30964 106.379 8.69364C106.379 7.79364 107.205 7.50364 108.493 7.50364H109.361V8.23164C109.357 9.16964 108.587 9.71564 107.551 9.71564H107.555ZM113.034 10.7936H114.728V0.0836433H113.034V10.7936ZM120.269 10.7936H122.131V6.98564H123.531C125.673 6.98564 127.199 6.04764 127.199 3.93364V3.87764C127.199 1.77764 125.729 0.783643 123.489 0.783643H120.269V10.7936ZM122.131 5.64164V2.22564H123.489C124.679 2.22564 125.379 2.68764 125.379 3.87764V3.93364C125.379 5.03964 124.721 5.64164 123.489 5.64164H122.131ZM130.442 10.9336C130.873 10.9647 131.304 10.886 131.696 10.7048C132.088 10.5235 132.427 10.2458 132.682 9.89764V10.7936H134.348V5.99364C134.348 3.99364 133.06 3.31964 131.422 3.31964C129.784 3.31964 128.422 4.03364 128.286 5.74164H129.924C129.932 5.57124 129.976 5.40434 130.053 5.25194C130.129 5.09954 130.237 4.96484 130.369 4.85664C130.501 4.74844 130.654 4.66914 130.819 4.62384C130.983 4.57854 131.155 4.56824 131.324 4.59364C132.318 4.59364 132.654 5.08364 132.654 6.06364V6.44164H131.744C129.644 6.44164 127.992 7.05764 127.992 8.76564C127.992 10.2936 129.1 10.9336 130.442 10.9336ZM130.848 9.71564C130.008 9.71564 129.672 9.30964 129.672 8.69364C129.672 7.79364 130.498 7.50364 131.786 7.50364H132.654V8.23164C132.654 9.16964 131.884 9.71564 130.848 9.71564ZM136.289 10.7936H137.983V6.98564C137.983 5.43164 138.883 4.95564 140.363 4.94164V3.35964C139.862 3.33214 139.364 3.45994 138.938 3.72544C138.513 3.99104 138.179 4.38154 137.983 4.84364V3.47164H136.289V10.7936ZM144.414 10.9196C144.805 10.9282 145.193 10.8666 145.562 10.7376V9.39364C145.299 9.49584 145.018 9.54344 144.736 9.53364C144.204 9.53364 143.896 9.23964 143.896 8.59564V4.74564H145.506V3.47164H143.9V1.86164H142.2V3.47164H141.22V4.74564H142.2V8.74564C142.167 9.04274 142.201 9.34364 142.301 9.62544C142.401 9.90724 142.564 10.1625 142.777 10.372C142.991 10.5815 143.249 10.7397 143.533 10.8345C143.816 10.9294 144.118 10.9585 144.414 10.9196ZM147.09 10.7936H148.784V6.48164C148.765 6.24944 148.797 6.01604 148.876 5.79704C148.956 5.57814 149.082 5.37894 149.245 5.21294C149.408 5.04694 149.605 4.91804 149.823 4.83494C150.041 4.75194 150.274 4.71664 150.506 4.73164C151.514 4.73164 151.962 5.23164 151.962 6.34164V10.7936H153.656V6.18764C153.656 4.17164 152.62 3.31764 151.15 3.31764C150.671 3.28934 150.195 3.39814 149.775 3.63124C149.356 3.86434 149.012 4.21204 148.784 4.63364V3.47164H147.09V10.7936ZM158.828 10.9336C160.704 10.9336 161.95 10.0936 162.188 8.55364H160.55C160.424 9.26764 159.892 9.67364 158.87 9.67364C157.61 9.67364 156.91 8.88964 156.854 7.50364H162.216V7.01364C162.216 4.39564 160.578 3.31364 158.758 3.31364C158.265 3.30154 157.774 3.39224 157.318 3.57974C156.861 3.76734 156.449 4.04774 156.107 4.40324C155.765 4.75864 155.5 5.18134 155.33 5.64454C155.159 6.10764 155.087 6.60114 155.118 7.09364V7.20564C155.086 7.70194 155.16 8.19944 155.335 8.66504C155.509 9.13074 155.781 9.55384 156.132 9.90644C156.483 10.2589 156.905 10.5328 157.37 10.7099C157.834 10.887 158.332 10.9633 158.828 10.9336ZM156.882 6.36964C156.897 5.88204 157.101 5.41944 157.451 5.07974C157.802 4.74004 158.27 4.54994 158.758 4.54964C159.808 4.54964 160.452 5.10964 160.536 6.36964H156.882ZM163.729 10.7936H165.423V6.98564C165.423 5.43164 166.323 4.95564 167.803 4.94164V3.35964C167.302 3.33214 166.804 3.45994 166.378 3.72544C165.953 3.99104 165.619 4.38154 165.423 4.84364V3.47164H163.729V10.7936Z" fill="white"/>
</svg>
